<svg width="20" height="20" viewBox="0 0 20 20" fill="none" xmlns="http://www.w3.org/2000/svg">
    <path d="M11.6584 5.16129L11.1461 4.64805V5.37323V12.8119C11.1461 13.0821 11.0388 13.3411 10.8478 13.5321C10.6568 13.7231 10.3977 13.8304 10.1276 13.8304C9.8575 13.8304 9.59846 13.7231 9.40746 13.5321C9.21646 13.3411 9.10916 13.0821 9.10916 12.8119V5.37323V4.64851L8.59693 5.16119L7.11912 6.64033C7.11909 6.64036 7.11906 6.64039 7.11903 6.64042C6.92775 6.83152 6.66839 6.93882 6.39801 6.93873C6.12758 6.93863 5.86826 6.83111 5.67711 6.63982C5.48595 6.44853 5.37862 6.18914 5.37871 5.91871C5.37881 5.64828 5.48633 5.38897 5.67762 5.19781L9.40753 1.47055L9.40821 1.46986C9.50248 1.37504 9.61458 1.29979 9.73804 1.24845C9.8615 1.1971 9.9939 1.17067 10.1276 1.17067C10.2613 1.17067 10.3937 1.1971 10.5172 1.24845C10.6406 1.29979 10.7527 1.37504 10.847 1.46986L10.8477 1.47051L14.5775 5.19898C14.5775 5.19899 14.5775 5.19901 14.5775 5.19902C14.5775 5.19904 14.5775 5.19907 14.5776 5.19909C14.6722 5.29379 14.7472 5.40618 14.7984 5.52986C14.8496 5.65359 14.8759 5.78619 14.8759 5.92009C14.8758 6.05399 14.8494 6.18658 14.7981 6.31027C14.7468 6.43396 14.6717 6.54634 14.5769 6.64099C14.4822 6.73564 14.3698 6.81071 14.2461 6.86191C14.1223 6.9131 13.9897 6.93943 13.8558 6.93938C13.7219 6.93934 13.5894 6.91292 13.4657 6.86163C13.342 6.81034 13.2296 6.7352 13.1349 6.64048L11.6584 5.16129ZM3.53534 11.1197H3.23534V11.4197V16.6935V16.9935H3.53534H16.7199H17.0199V16.6935V11.4197V11.1197H16.7199H15.4014C15.1313 11.1197 14.8723 11.0124 14.6813 10.8214C14.4903 10.6304 14.383 10.3713 14.383 10.1012C14.383 9.8311 14.4903 9.57205 14.6813 9.38105C14.8723 9.19005 15.1313 9.08275 15.4014 9.08275H16.7199C17.3397 9.08275 17.9341 9.32896 18.3723 9.76722C18.8106 10.2055 19.0568 10.7999 19.0568 11.4197V16.6935C19.0568 17.3133 18.8106 17.9077 18.3723 18.3459C17.9341 18.7842 17.3397 19.0304 16.7199 19.0304H3.53534C2.91556 19.0304 2.32116 18.7842 1.8829 18.3459C1.44465 17.9077 1.19844 17.3133 1.19844 16.6935V11.4197C1.19844 10.7999 1.44465 10.2055 1.8829 9.76722C2.32116 9.32896 2.91556 9.08275 3.53534 9.08275H4.8538C5.12391 9.08275 5.38296 9.19005 5.57395 9.38105C5.76495 9.57205 5.87225 9.8311 5.87225 10.1012C5.87225 10.3713 5.76495 10.6304 5.57395 10.8214C5.38296 11.0124 5.12391 11.1197 4.8538 11.1197H3.53534Z" fill="#181725"/>
</svg>

