<svg width="25" height="25" viewBox="0 0 25 25" fill="none" xmlns="http://www.w3.org/2000/svg">
<rect x="0.0639648" width="24.0716" height="24.0716" rx="8" fill="#53B175"/>
<path fill-rule="evenodd" clip-rule="evenodd" d="M19.0624 8.39305C19.0624 8.74277 18.9248 9.07128 18.6884 9.29979L11.1714 16.5816C10.9074 16.8229 10.5622 16.9618 10.2154 16.9618C9.86525 16.9618 9.5229 16.8207 9.27938 16.5853L5.51088 12.9425C5.27448 12.714 5.13692 12.3855 5.13692 12.0358C5.13692 11.7049 5.27674 11.3867 5.52713 11.1292C5.78393 10.8962 6.11183 10.7662 6.47056 10.7526C6.82044 10.7543 7.14545 10.8817 7.40307 11.1173L10.2154 13.8358L16.7962 7.47456C17.0538 7.23898 17.3789 7.1116 17.7287 7.1098C18.0899 7.12351 18.4167 7.25499 18.6722 7.50196C18.9189 7.7404 19.0624 8.05743 19.0624 8.39305Z" fill="#FCFCFC"/>
</svg>
