<svg width="68" height="68" viewBox="0 0 68 68" fill="none" xmlns="http://www.w3.org/2000/svg">
<circle cx="34.2623" cy="34.4023" r="33.5" fill="#53B175"/>
<g clip-path="url(#clip0_1_408)">
<path d="M29.6665 27.676C29.4318 27.4189 29.3014 27.0805 29.3145 26.7287C29.3145 26.3768 29.4449 26.052 29.6926 25.7948C29.9273 25.5512 30.2532 25.4023 30.5922 25.4023C30.9312 25.4023 31.2571 25.5241 31.5048 25.7678L38.8842 33.4279C39.0016 33.5497 39.0928 33.6986 39.158 33.861C39.2232 34.0234 39.2623 34.1993 39.2623 34.3753C39.2623 34.5512 39.2232 34.7272 39.158 34.9031C39.0928 35.0655 39.0016 35.2144 38.8842 35.3362L31.5048 42.9963C31.3875 43.1181 31.2441 43.2264 31.0876 43.2941C30.9181 43.3617 30.7486 43.4023 30.5791 43.4023C30.4097 43.4023 30.2271 43.3753 30.0707 43.3076C29.9142 43.2399 29.7708 43.1317 29.6404 43.0099C29.5231 42.8881 29.4318 42.7257 29.3666 42.5632C29.2884 42.4008 29.2623 42.2249 29.2623 42.0354C29.2623 41.8595 29.3014 41.6835 29.3666 41.5211C29.4318 41.3587 29.5361 41.2099 29.6665 41.0745L36.1202 34.3753L34.8947 33.1166L29.6665 27.676Z" fill="#FFF9FF"/>
</g>
<defs>
<clipPath id="clip0_1_408">
<rect width="10" height="18" fill="white" transform="translate(39.2623 43.4023) rotate(-180)"/>
</clipPath>
</defs>
</svg>
